<mxfile host="app.diagrams.net" modified="2024-06-09T15:22:25.430Z" agent="Mozilla/5.0 (Windows NT 10.0; Win64; x64) AppleWebKit/537.36 (KHTML, like Gecko) Chrome/125.0.0.0 Safari/537.36" etag="IOIFrg8tov5MTy2l_7O8" version="24.4.13" type="device">
  <diagram name="Pagina-1" id="7f63e_qPT61lBuv8i_iZ">
    <mxGraphModel dx="1232" dy="1105" grid="1" gridSize="10" guides="1" tooltips="1" connect="1" arrows="1" fold="1" page="1" pageScale="1" pageWidth="827" pageHeight="1169" math="0" shadow="0">
      <root>
        <mxCell id="0" />
        <mxCell id="1" parent="0" />
        <mxCell id="FCwg4TSXpBnCogaQ1pkY-1" value="Main" style="swimlane;fontStyle=0;childLayout=stackLayout;horizontal=1;startSize=26;fillColor=none;horizontalStack=0;resizeParent=1;resizeParentMax=0;resizeLast=0;collapsible=1;marginBottom=0;whiteSpace=wrap;html=1;" vertex="1" parent="1">
          <mxGeometry x="320" y="40" width="170" height="52" as="geometry" />
        </mxCell>
        <mxCell id="FCwg4TSXpBnCogaQ1pkY-4" value="&lt;span class=&quot;hljs-operator&quot;&gt;-&lt;/span&gt; main(args: String[]): void&amp;nbsp;" style="text;strokeColor=none;fillColor=none;align=left;verticalAlign=top;spacingLeft=4;spacingRight=4;overflow=hidden;rotatable=0;points=[[0,0.5],[1,0.5]];portConstraint=eastwest;whiteSpace=wrap;html=1;" vertex="1" parent="FCwg4TSXpBnCogaQ1pkY-1">
          <mxGeometry y="26" width="170" height="26" as="geometry" />
        </mxCell>
        <mxCell id="FCwg4TSXpBnCogaQ1pkY-6" value="TicToe" style="swimlane;fontStyle=0;childLayout=stackLayout;horizontal=1;startSize=26;fillColor=none;horizontalStack=0;resizeParent=1;resizeParentMax=0;resizeLast=0;collapsible=1;marginBottom=0;whiteSpace=wrap;html=1;" vertex="1" parent="1">
          <mxGeometry x="520" y="50" width="190" height="270" as="geometry" />
        </mxCell>
        <mxCell id="FCwg4TSXpBnCogaQ1pkY-8" value="+tabella:char&lt;div&gt;&lt;br&gt;&lt;/div&gt;" style="text;strokeColor=none;fillColor=none;align=left;verticalAlign=top;spacingLeft=4;spacingRight=4;overflow=hidden;rotatable=0;points=[[0,0.5],[1,0.5]];portConstraint=eastwest;whiteSpace=wrap;html=1;" vertex="1" parent="FCwg4TSXpBnCogaQ1pkY-6">
          <mxGeometry y="26" width="190" height="26" as="geometry" />
        </mxCell>
        <mxCell id="FCwg4TSXpBnCogaQ1pkY-10" value="+giocatoreAttuale:String" style="text;strokeColor=none;fillColor=none;align=left;verticalAlign=top;spacingLeft=4;spacingRight=4;overflow=hidden;rotatable=0;points=[[0,0.5],[1,0.5]];portConstraint=eastwest;whiteSpace=wrap;html=1;" vertex="1" parent="FCwg4TSXpBnCogaQ1pkY-6">
          <mxGeometry y="52" width="190" height="26" as="geometry" />
        </mxCell>
        <mxCell id="FCwg4TSXpBnCogaQ1pkY-12" value="" style="line;strokeWidth=1;fillColor=none;align=left;verticalAlign=middle;spacingTop=-1;spacingLeft=3;spacingRight=3;rotatable=0;labelPosition=right;points=[];portConstraint=eastwest;strokeColor=inherit;" vertex="1" parent="FCwg4TSXpBnCogaQ1pkY-6">
          <mxGeometry y="78" width="190" height="8" as="geometry" />
        </mxCell>
        <mxCell id="FCwg4TSXpBnCogaQ1pkY-5" value="&lt;span class=&quot;hljs-operator&quot;&gt;|&lt;/span&gt; &lt;span class=&quot;hljs-operator&quot;&gt;+&lt;/span&gt; TicToe()&amp;nbsp;" style="text;strokeColor=none;fillColor=none;align=left;verticalAlign=top;spacingLeft=4;spacingRight=4;overflow=hidden;rotatable=0;points=[[0,0.5],[1,0.5]];portConstraint=eastwest;whiteSpace=wrap;html=1;" vertex="1" parent="FCwg4TSXpBnCogaQ1pkY-6">
          <mxGeometry y="86" width="190" height="26" as="geometry" />
        </mxCell>
        <mxCell id="FCwg4TSXpBnCogaQ1pkY-11" value="&lt;span class=&quot;hljs-operator&quot;&gt;+&lt;/span&gt; Vincitore(): &lt;span class=&quot;hljs-type&quot;&gt;boolean&lt;/span&gt;" style="text;strokeColor=none;fillColor=none;align=left;verticalAlign=top;spacingLeft=4;spacingRight=4;overflow=hidden;rotatable=0;points=[[0,0.5],[1,0.5]];portConstraint=eastwest;whiteSpace=wrap;html=1;" vertex="1" parent="FCwg4TSXpBnCogaQ1pkY-6">
          <mxGeometry y="112" width="190" height="28" as="geometry" />
        </mxCell>
        <mxCell id="FCwg4TSXpBnCogaQ1pkY-13" value="+getTabella(): &lt;span class=&quot;hljs-type&quot;&gt;char&lt;/span&gt;[][]" style="text;strokeColor=none;fillColor=none;align=left;verticalAlign=top;spacingLeft=4;spacingRight=4;overflow=hidden;rotatable=0;points=[[0,0.5],[1,0.5]];portConstraint=eastwest;whiteSpace=wrap;html=1;" vertex="1" parent="FCwg4TSXpBnCogaQ1pkY-6">
          <mxGeometry y="140" width="190" height="26" as="geometry" />
        </mxCell>
        <mxCell id="FCwg4TSXpBnCogaQ1pkY-28" value="&lt;span class=&quot;hljs-operator&quot;&gt;+&lt;/span&gt; getGiocatoreAttuale(): Giocatori" style="text;strokeColor=none;fillColor=none;align=left;verticalAlign=top;spacingLeft=4;spacingRight=4;overflow=hidden;rotatable=0;points=[[0,0.5],[1,0.5]];portConstraint=eastwest;whiteSpace=wrap;html=1;" vertex="1" parent="FCwg4TSXpBnCogaQ1pkY-6">
          <mxGeometry y="166" width="190" height="26" as="geometry" />
        </mxCell>
        <mxCell id="FCwg4TSXpBnCogaQ1pkY-27" value="&lt;span class=&quot;hljs-operator&quot;&gt;+&lt;/span&gt; cambioTurno(): void" style="text;strokeColor=none;fillColor=none;align=left;verticalAlign=top;spacingLeft=4;spacingRight=4;overflow=hidden;rotatable=0;points=[[0,0.5],[1,0.5]];portConstraint=eastwest;whiteSpace=wrap;html=1;" vertex="1" parent="FCwg4TSXpBnCogaQ1pkY-6">
          <mxGeometry y="192" width="190" height="26" as="geometry" />
        </mxCell>
        <mxCell id="FCwg4TSXpBnCogaQ1pkY-14" value="+partitaPersa(): &lt;span class=&quot;hljs-type&quot;&gt;boolean&lt;/span&gt;&lt;span class=&quot;hljs-operator&quot;&gt;|&lt;/span&gt;" style="text;strokeColor=none;fillColor=none;align=left;verticalAlign=top;spacingLeft=4;spacingRight=4;overflow=hidden;rotatable=0;points=[[0,0.5],[1,0.5]];portConstraint=eastwest;whiteSpace=wrap;html=1;" vertex="1" parent="FCwg4TSXpBnCogaQ1pkY-6">
          <mxGeometry y="218" width="190" height="26" as="geometry" />
        </mxCell>
        <mxCell id="FCwg4TSXpBnCogaQ1pkY-26" value="&lt;span class=&quot;hljs-operator&quot;&gt;+&lt;/span&gt; faiUnaMossa(): &lt;span class=&quot;hljs-type&quot;&gt;boolean&lt;/span&gt;&lt;span class=&quot;hljs-operator&quot;&gt;|&lt;/span&gt;" style="text;strokeColor=none;fillColor=none;align=left;verticalAlign=top;spacingLeft=4;spacingRight=4;overflow=hidden;rotatable=0;points=[[0,0.5],[1,0.5]];portConstraint=eastwest;whiteSpace=wrap;html=1;" vertex="1" parent="FCwg4TSXpBnCogaQ1pkY-6">
          <mxGeometry y="244" width="190" height="26" as="geometry" />
        </mxCell>
        <mxCell id="FCwg4TSXpBnCogaQ1pkY-15" value="Partita" style="swimlane;fontStyle=0;childLayout=stackLayout;horizontal=1;startSize=26;fillColor=none;horizontalStack=0;resizeParent=1;resizeParentMax=0;resizeLast=0;collapsible=1;marginBottom=0;whiteSpace=wrap;html=1;" vertex="1" parent="1">
          <mxGeometry x="110" y="110" width="180" height="164" as="geometry" />
        </mxCell>
        <mxCell id="FCwg4TSXpBnCogaQ1pkY-16" value="+tabella:char&lt;div&gt;&lt;br&gt;&lt;/div&gt;" style="text;strokeColor=none;fillColor=none;align=left;verticalAlign=top;spacingLeft=4;spacingRight=4;overflow=hidden;rotatable=0;points=[[0,0.5],[1,0.5]];portConstraint=eastwest;whiteSpace=wrap;html=1;" vertex="1" parent="FCwg4TSXpBnCogaQ1pkY-15">
          <mxGeometry y="26" width="180" height="26" as="geometry" />
        </mxCell>
        <mxCell id="FCwg4TSXpBnCogaQ1pkY-17" value="+giocatoreAttuale:String" style="text;strokeColor=none;fillColor=none;align=left;verticalAlign=top;spacingLeft=4;spacingRight=4;overflow=hidden;rotatable=0;points=[[0,0.5],[1,0.5]];portConstraint=eastwest;whiteSpace=wrap;html=1;" vertex="1" parent="FCwg4TSXpBnCogaQ1pkY-15">
          <mxGeometry y="52" width="180" height="26" as="geometry" />
        </mxCell>
        <mxCell id="FCwg4TSXpBnCogaQ1pkY-18" value="" style="line;strokeWidth=1;fillColor=none;align=left;verticalAlign=middle;spacingTop=-1;spacingLeft=3;spacingRight=3;rotatable=0;labelPosition=right;points=[];portConstraint=eastwest;strokeColor=inherit;" vertex="1" parent="FCwg4TSXpBnCogaQ1pkY-15">
          <mxGeometry y="78" width="180" height="8" as="geometry" />
        </mxCell>
        <mxCell id="FCwg4TSXpBnCogaQ1pkY-20" value="+partitaPersa:Giocatori" style="text;strokeColor=none;fillColor=none;align=left;verticalAlign=top;spacingLeft=4;spacingRight=4;overflow=hidden;rotatable=0;points=[[0,0.5],[1,0.5]];portConstraint=eastwest;whiteSpace=wrap;html=1;" vertex="1" parent="FCwg4TSXpBnCogaQ1pkY-15">
          <mxGeometry y="86" width="180" height="26" as="geometry" />
        </mxCell>
        <mxCell id="FCwg4TSXpBnCogaQ1pkY-21" value="&lt;span class=&quot;hljs-operator&quot;&gt;+&lt;/span&gt; partitaPersa(): &lt;span class=&quot;hljs-type&quot;&gt;boolean&lt;/span&gt;&lt;span class=&quot;hljs-operator&quot;&gt;|&lt;/span&gt;" style="text;strokeColor=none;fillColor=none;align=left;verticalAlign=top;spacingLeft=4;spacingRight=4;overflow=hidden;rotatable=0;points=[[0,0.5],[1,0.5]];portConstraint=eastwest;whiteSpace=wrap;html=1;" vertex="1" parent="FCwg4TSXpBnCogaQ1pkY-15">
          <mxGeometry y="112" width="180" height="26" as="geometry" />
        </mxCell>
        <mxCell id="FCwg4TSXpBnCogaQ1pkY-22" value="&lt;span class=&quot;hljs-operator&quot;&gt;+&lt;/span&gt; stampaTabella(): void&amp;nbsp;" style="text;strokeColor=none;fillColor=none;align=left;verticalAlign=top;spacingLeft=4;spacingRight=4;overflow=hidden;rotatable=0;points=[[0,0.5],[1,0.5]];portConstraint=eastwest;whiteSpace=wrap;html=1;" vertex="1" parent="FCwg4TSXpBnCogaQ1pkY-15">
          <mxGeometry y="138" width="180" height="26" as="geometry" />
        </mxCell>
        <mxCell id="FCwg4TSXpBnCogaQ1pkY-29" value="Giocatori" style="swimlane;fontStyle=0;childLayout=stackLayout;horizontal=1;startSize=26;fillColor=none;horizontalStack=0;resizeParent=1;resizeParentMax=0;resizeLast=0;collapsible=1;marginBottom=0;whiteSpace=wrap;html=1;" vertex="1" parent="1">
          <mxGeometry x="260" y="380" width="140" height="78" as="geometry" />
        </mxCell>
        <mxCell id="FCwg4TSXpBnCogaQ1pkY-30" value=" PLAYER " style="text;strokeColor=none;fillColor=none;align=left;verticalAlign=top;spacingLeft=4;spacingRight=4;overflow=hidden;rotatable=0;points=[[0,0.5],[1,0.5]];portConstraint=eastwest;whiteSpace=wrap;html=1;" vertex="1" parent="FCwg4TSXpBnCogaQ1pkY-29">
          <mxGeometry y="26" width="140" height="26" as="geometry" />
        </mxCell>
        <mxCell id="FCwg4TSXpBnCogaQ1pkY-31" value="COMPUTER" style="text;strokeColor=none;fillColor=none;align=left;verticalAlign=top;spacingLeft=4;spacingRight=4;overflow=hidden;rotatable=0;points=[[0,0.5],[1,0.5]];portConstraint=eastwest;whiteSpace=wrap;html=1;" vertex="1" parent="FCwg4TSXpBnCogaQ1pkY-29">
          <mxGeometry y="52" width="140" height="26" as="geometry" />
        </mxCell>
      </root>
    </mxGraphModel>
  </diagram>
</mxfile>
